<svg width="436" height="98" viewBox="0 0 436 98" fill="none" xmlns="http://www.w3.org/2000/svg">
<g id="Vinivn logo">
<g id="vinvin">
<path d="M0.5 34.6175H29.554L39.1969 71.9746L48.5894 34.6175H71.507L51.595 97.0038H21.1634L0.5 34.6175Z" fill="#262338"/>
<path d="M97.5946 98C90.5815 98 85.113 95.7586 81.1891 91.2757C77.2651 86.7929 75.3031 80.6912 75.3031 72.9708V34.6175H101.852V71.8501C101.852 73.7594 102.353 75.2537 103.355 76.3329C104.441 77.3291 105.818 77.8272 107.488 77.8272C109.158 77.8272 110.869 77.3291 112.622 76.3329L114 93.6417C112.163 95.053 109.742 96.1321 106.737 96.8793C103.814 97.6264 100.767 98 97.5946 98ZM88.5778 25.2783C84.6538 25.2783 81.3143 24.0745 78.5592 21.6671C75.8875 19.1766 74.5517 16.1465 74.5517 12.5769C74.5517 9.0072 75.971 6.01864 78.8096 3.61118C81.6482 1.20373 84.9043 0 88.5778 0C92.4183 0 95.7161 1.24524 98.4712 3.73571C101.31 6.22618 102.729 9.17323 102.729 12.5769C102.729 16.2296 101.31 19.2596 98.4712 21.6671C95.6326 24.0745 92.3348 25.2783 88.5778 25.2783Z" fill="#262338"/>
<path d="M118.788 35.4892H143.96V48.1906C148.802 38.5608 156.483 33.7459 167.003 33.7459C175.018 33.7459 181.279 36.6099 185.788 42.338C190.38 47.9831 192.676 55.828 192.676 65.8729V97.0038H166.377V63.2579C166.377 59.6883 165.584 56.9487 163.997 55.0394C162.495 53.13 160.366 52.1754 157.61 52.1754C155.607 52.1754 153.645 52.8395 151.724 54.1677C149.804 55.413 148.218 57.2393 146.966 59.6468C145.797 62.0542 145.212 64.7937 145.212 67.8653V97.0038H118.788V35.4892Z" fill="#262338"/>
<path d="M194.288 34.6175H223.342L232.985 71.9746L242.377 34.6175H265.295L245.383 97.0038H214.951L194.288 34.6175Z" fill="#262338"/>
<path d="M291.383 98C284.37 98 278.901 95.7586 274.977 91.2757C271.053 86.7929 269.091 80.6912 269.091 72.9708V34.6175H295.64V71.8501C295.64 73.7594 296.141 75.2537 297.143 76.3329C298.229 77.3291 299.606 77.8272 301.276 77.8272C302.946 77.8272 304.657 77.3291 306.41 76.3329L307.788 93.6417C305.951 95.053 303.53 96.1321 300.525 96.8793C297.602 97.6264 294.555 98 291.383 98ZM282.366 25.2783C278.442 25.2783 275.102 24.0745 272.347 21.6671C269.676 19.1766 268.34 16.1465 268.34 12.5769C268.34 9.0072 269.759 6.01864 272.598 3.61118C275.436 1.20373 278.692 0 282.366 0C286.206 0 289.504 1.24524 292.259 3.73571C295.098 6.22618 296.517 9.17323 296.517 12.5769C296.517 16.2296 295.098 19.2596 292.259 21.6671C289.421 24.0745 286.123 25.2783 282.366 25.2783Z" fill="#262338"/>
<path d="M312.576 35.4892H337.748V48.1906C342.59 38.5608 350.271 33.7459 360.791 33.7459C368.806 33.7459 375.067 36.6099 379.576 42.338C384.168 47.9831 386.464 55.828 386.464 65.8729V97.0038H360.165V63.2579C360.165 59.6883 359.372 56.9487 357.785 55.0394C356.283 53.13 354.154 52.1754 351.398 52.1754C349.395 52.1754 347.433 52.8395 345.512 54.1677C343.592 55.413 342.006 57.2393 340.754 59.6468C339.585 62.0542 339 64.7937 339 67.8653V97.0038H312.576V35.4892Z" fill="#262338"/>
</g>
<path id="Ellipse 52" d="M435.5 79.8226C435.5 88.9887 428.064 96.4193 418.891 96.4193C409.718 96.4193 402.282 88.9887 402.282 79.8226C402.282 70.6564 409.718 63.2258 418.891 63.2258C428.064 63.2258 435.5 70.6564 435.5 79.8226Z" fill="#610BEF"/>
</g>
</svg>
